<svg width="173" height="169" viewBox="0 0 173 169" fill="none" xmlns="http://www.w3.org/2000/svg">
<g clip-path="url(#clip0_146_633)">
<path d="M90.48 166.36L83.35 166.58C78.17 166.74 74.45 167.21 69.84 164.57L62.93 163.96C59.57 163.67 57.68 163.26 55.03 161.18L49 158.5L34.48 149.8L27.19 144.89C25.59 143.81 24.57 141.1 24.19 139.25C20.76 137.96 18.74 134.77 16.82 131.26C15.86 129.5 12.31 126.87 11.61 125.03L7.44 114.12L5.35 109.19L1.86 100.63C1.68 100.18 1.43 99.29 1.73 99.35L4.75 100.01L1.83 93.38L0.00999798 89.3C-0.180002 88.86 1.6 87.63 1.97 87.33C2.46 86.92 0.769998 85.34 0.759998 84.67L0.669998 73.71L0.649998 71.02C0.649998 70.36 2.44 70.63 3.61 70.83L5.41 64.7L2.65 65.46C2.21 65.58 1.23 64.83 1.4 64.4C2.77 61.02 6.7 60.83 6.36 58.12C5.71 52.95 7.96 47.96 10.77 43.76L18.95 31.54L25.86 24.57C26.07 24.36 25.65 22.97 25.64 22.68C25.63 22.39 26.45 21.7 26.6 21.96L27.69 23.85L38.81 14.42L40.49 13L43.92 12.63L54.12 6.83L63.4 4.31L70.9 1.97C73.58 3.14 76.91 1.63 79.16 0.5C83.48 1.8 88.3 1.45 92.08 0L104.17 2.43L120.1 6.33L125.5 11.77C127.58 13.86 128.68 16.05 131.76 15.73L127.28 11.26C129.72 11.71 132.29 13.45 133.91 15.46L135.98 15.25C136.46 15.2 136.05 16.15 135.57 17.23C137.78 19.78 141.14 21.83 144.37 21.8L149.05 29.26C150.95 32.29 153.62 34.39 156.29 37.12C160.32 41.25 161.98 48.37 164.98 53.26C166.85 56.32 167.58 58.42 168.09 61.64L170.04 73.86L172.05 93.31L169.84 96.22L170.4 98.65C169.23 101.12 168.53 104.05 168.5 106.84L165.06 111.47L169.54 109.4C168.91 111.79 166.49 113.82 164.21 114.99C162.97 121.88 156.46 133.01 153.86 134.54C150.95 136.25 148.06 137.34 146.13 140.98L154.73 135.85C153.18 139.19 148.13 143.27 145.11 144.14C144.05 145.84 141.9 149.83 139.99 150.48L133.94 152.53C129.84 153.92 126.84 155.3 125.45 159.59C124.14 159.37 121.59 159.4 120.57 159.97L112.38 164.5L107.72 163.34C106.36 163 103.63 165.82 102.88 166.8L93.12 167.88L90.88 168.33C90.5 168.41 90.53 167.34 90.47 166.38L90.48 166.36ZM62.43 153.78C66.67 155.25 69.73 155.63 74.17 155.86L83.97 158.45L99.57 156.17L111.79 153.8L116.56 151.68L126.28 146.38L135.34 140.39C138.35 138.4 140.6 136.05 142.42 133.64C146.74 127.92 151.34 122.59 154.7 115.94C156.01 113.34 157.34 110.96 157.34 108.3L159.5 100.3C160.77 95.61 160.79 91.57 160.84 86.56L160.94 76.68C164.71 73.48 157.1 73.67 159.63 67.5C160.32 65.81 157.93 62.37 156.61 61.61L157.96 59.56C152.43 55.03 155.48 50.23 149.61 44.69L151.59 42.62C151.83 42.37 150.17 42.12 149.84 42.24L148.01 42.89C144.46 37.66 140.14 31.28 134.42 28.14C130.58 26.03 127.71 24.67 124.89 21.35C122.6 18.66 119.54 17.7 116.38 16.81L104.55 13.5L91.61 10.42C83.86 8.57 79.41 12.62 72.51 12.91C68.91 13.06 68.42 12.98 65.41 14.75L54.99 17.49C53.81 17.8 51.39 17.4 50.8 18.26L48.21 22.04L38.48 28.29L33.7 31.72C31.26 33.47 30.64 34.5 28.76 38.13C27.05 41.43 21.47 45.58 18.85 48.47C18.44 53.22 17.8 57.46 15.2 61.18L14.54 65.04C14.36 66.08 11.85 67.42 11.25 67.65C11.97 68.11 13.39 68.97 13.1 69.39L11.37 71.88L11 82.35C13.73 85.81 9.33 88.39 12.7 94.4C11.98 95.15 9.81 97.7 10.52 98.48L13.65 101.95L17.34 113.79C17.33 114.75 17.16 116.45 17.72 116.8L19.55 117.94C20.27 120.45 22.28 123.02 24.7 124.39L27.05 128.38L32.15 134.1C32.57 134.57 33.29 136.17 32.88 136.47L31 137.84L36.02 139.03L34.4 135.35L46.88 147.71C50.15 147.16 55.44 149.16 56.16 151.72C56.16 154.66 60.16 154.1 62.44 153.78H62.43Z" fill="black"/>
<path d="M80.77 109.74L80.47 90.36C72.94 87.65 67.33 92.82 59.51 89.38C54.46 91.32 49.95 91.79 46.04 85.85L50.35 81.36C55.19 81.76 58.77 81.41 63.52 80.57C71.5 79.16 79.07 81.75 80.11 79.17C80.42 78.4 80.8 76.17 80.72 75.25L80.18 68.43L79.11 59.25L81.7 60.01C82.05 60.11 82.42 58.68 82.07 58.56L79.56 57.73L80.41 53.61C81.06 50.48 80.82 48.87 82.77 47.03C84.36 45.52 89.26 47.24 89.4 49.99L90.34 68.2L90.61 80.72C99.45 79.43 106.23 79.15 114.84 79.36C118.04 79.44 122.9 79.25 124.98 82.27C125.86 83.55 124.02 87.56 122.57 88.01C120.98 88.5 118.64 88.3 116.52 88.15L110.46 87.74C108.42 89.22 106.9 89.59 104.36 89.57L90.45 89.47V107.09L90.27 113.92C90.34 116.32 90.72 118.84 89.74 120.28C88.59 121.97 83.63 123.1 82.54 121.73C79.99 118.52 80.81 113.97 80.75 109.75L80.77 109.74Z" fill="black"/>
</g>
<defs>
<clipPath id="clip0_146_633">
<rect width="172.07" height="168.32" fill="white"/>
</clipPath>
</defs>
</svg>
