<svg width="179" height="174" viewBox="0 0 179 174" fill="none" xmlns="http://www.w3.org/2000/svg">
<g clip-path="url(#clip0_146_619)">
<path d="M127.44 145.2C124.41 145.4 121.54 147.23 119.47 146.84C117.53 146.47 115.81 146.45 114.37 147.08C113.22 147.59 113.49 150.19 114.15 151.95C114.86 154.88 114.39 157.26 112.45 158.8C112.33 163.82 110.18 168.08 105.33 169.5C101.56 172.74 97.13 173.46 92.56 172.96L83.36 171.96C79.65 171.56 76.76 170.18 74.25 166.85L71.54 166.45L66.87 159.34L68.32 145.43C65.73 146.36 64.02 146.84 62 146.72L41.66 145.59L40.89 144.07C40.1 142.5 36.35 145.89 26.63 141.67C23.38 140.26 21.34 139.19 19.5 136.44L18.29 134.63C18.94 135.6 20.75 128.03 25.07 123.32C28.65 119.42 33.34 115.51 35.36 110.77C40 99.87 38.93 88.12 38.89 76.6L38.84 64.23L40.67 56.61C44.1 42.35 53.27 29.46 66.66 23.03L76.97 19.15C75.1 12.22 77.01 5.84999 82.56 1.47999L92.53 -0.0100098L100.68 4.93999L102.69 19.47C109.19 22.14 115.37 25.31 120.13 29.82C122.71 29.42 123.45 31.48 124.63 33.46L132.48 46.65C134.13 49.42 135.34 52.22 136.05 55.33L138.04 64.03L138.79 76.2L140.02 88.14C140.3 90.84 140.2 93.44 139.85 95.76L142.64 105.56L148.01 117.64C148.17 118 149.16 118.96 149.34 118.77L150.7 117.33L155.08 123.04C155.94 124.17 157.17 126.07 158.17 126.66L159.83 127.65C160.12 127.82 159.81 129.08 159.53 128.9L157.03 127.27L158.65 131.81L154.68 137.27L160.12 134.87L155.75 141.19L153.12 139.71C151.54 141 148.26 143.38 146.24 143.47C143.82 143.58 141.63 144.27 139.21 144.43L127.45 145.21L127.44 145.2ZM95.27 17.46C96.13 15.17 95.57 9.37999 92.72 7.29999C91.35 6.29999 87.64 6.45999 85.69 6.86999C83.68 10.09 82.33 14.84 82.24 17.79L95.27 17.46ZM78.17 139.84L91.97 139.97L109.79 139.64L115.81 139.37C118.34 138.12 121.21 138.78 123.82 138.51L137.25 137.12L146.88 135.51L151.85 132.78C150.67 128.94 148.43 123.11 144.98 121.7C138.53 119.07 136.13 114.56 134.52 108.25L132.26 99.43C131.99 98.37 131.28 96.75 131.49 95.99L132.15 93.64C129.93 89.48 129.65 82.6 129.45 77.25L129.21 70.72L128.12 63.45L126.18 54.59C125.15 49.9 122.28 44.24 119.53 40.71C117.47 38.08 115.61 36.75 114.22 33.65C113.2 31.39 110.43 30.57 108.41 30.66C105.8 27.98 102.07 25.85 98.21 25.26L92.42 24.38C86.28 23.45 76.75 25.62 70.64 28.78L68.97 29.64C68.64 29.81 69.1 31.25 69.45 31.11L71.84 30.13C72.58 29.56 74.6 30.66 73.13 31.4C72.11 32.52 71.01 33.99 70.55 33.62L68.54 32L64.06 37.1C57.89 39.81 53.46 45.48 54.17 51.2C52.18 52.09 49.8 54.4 49.51 56.43L49.06 59.54C49 59.95 50.77 59.7 50.67 59.73L49.55 66.84L47.38 66.22C47.02 66.12 47.1 67.58 47.13 68.01L47.75 76.06L48.57 90.7C48.71 93.24 47.62 96.71 46.64 99.18L44.27 105.2L39.17 119.75C34.62 120.49 33.25 122.92 33.28 126.14L27.52 133.36L31.98 135.12L40.66 138.55C50.23 135.83 54.85 141.2 61.21 138.83C66.79 140.04 72.07 139.79 78.17 139.85V139.84ZM106.24 147.19L102.11 147.48L90.86 148.02C87.7 148.17 85.14 148.03 81.94 147.42L75.13 148.13C72.58 157.13 79.44 163.2 87.61 164.97C91.14 165.74 92.76 165.7 96.21 164.56C103.79 162.04 107.64 156.21 106.26 147.19H106.24Z" fill="black"/>
<path d="M162.83 21.59L151.44 30.84C150.37 31.71 148.62 32.64 147.57 32.95C146.52 33.26 143.6 31.16 143.88 30.09C147.57 23.39 154.78 17.65 162.13 14.03L166.5 18.61L162.83 21.59Z" fill="black"/>
<path d="M32.84 29.05C33.6 29.71 32.56 33.05 31.68 33.34C30.62 33.68 28.24 33.69 27.31 33.01L11.83 21.68C12.84 19.4 15.63 16.55 17.35 16.23L22.32 19.88L32.84 29.06V29.05Z" fill="black"/>
<path d="M175.16 66.43L162.49 66.76C159.63 66.83 157.03 65.24 156.03 62.29C162.31 58.37 176.86 59.11 177.83 61C178.72 62.73 177.07 66.39 175.16 66.44V66.43Z" fill="black"/>
<path d="M21.45 65.61C16.74 66.84 9.12 67.3 4.14 67.11L0 63.39C1.98 61.56 4.37 60.2 6.38 60.26L16.92 60.6L20.65 60.92C21.58 61 22.45 65.34 21.46 65.6L21.45 65.61Z" fill="black"/>
</g>
<defs>
<clipPath id="clip0_146_619">
<rect width="178.07" height="173.11" fill="white"/>
</clipPath>
</defs>
</svg>
