<svg width="165" height="147" viewBox="0 0 165 147" fill="none" xmlns="http://www.w3.org/2000/svg">
<g clip-path="url(#clip0_146_680)">
<path d="M129.85 96.1C124.25 97.05 118.48 93.67 113.18 94.24L100.95 95.55L87.7799 95.97L62.0599 95.51L70.5899 107.29C72.5499 110 72.4999 111.62 75.3799 113.2C77.1599 114.56 79.5299 117.37 81.0899 119.28L77.3299 119.5L81.4299 123.29C82.1399 123.95 83.45 125.5 83.9699 126.38C84.5499 127.38 81.5399 128.95 80.4499 129.43C81.1599 130.5 82.4399 131.84 82.41 132.58L82.2499 136.67L84.4199 132.78C85.9999 134 84.6699 137.17 82.6799 138.64L81.1799 139.75C80.8599 139.99 81.7399 140.72 82.2399 141.21L79.5599 146.87L69.9199 146.26C68.3299 143.72 64.6699 142.4 61.7899 142.4C58.3599 138.54 54.2299 135.72 50.5199 131.88L43.6599 124.79L39.0299 119.59C37.8499 119.08 35.9799 118.01 34.9199 116.83L27.7299 108.84L15.0899 97.08L1.88994 80.07L0.139945 78.77C-0.190055 78.52 0.109944 77.38 0.529944 77.38H2.61994L0.759944 69.18C0.549945 68.24 0.349945 66.39 0.539945 65.19C0.709945 64.15 2.88994 64.76 4.03994 65.64L8.97994 57.09L23.2399 42.41L30.1399 35.27L42.5799 23.58L48.9399 17.12L54.2199 12.31C57.6699 9.17 60.8999 7.02 64.91 4.76L69.4999 2.17C70.7199 1.48 73.5499 3.09 75.5399 3.82L75.1899 1.29C75.13 0.84 76.1299 0.0299998 76.3499 -0.0100002L80.8699 6.79L83.2099 5.12C83.5699 4.86 84.3199 6.34 84.1699 6.76L83.4299 8.88C82.4199 11.75 83.2499 17.29 84.2699 20.41L76.5099 29.7L78.2799 32.3C78.6199 32.8 77.1499 34.51 76.6499 34.91L66.6199 42.75L68.3599 44.42C68.6699 44.72 67.0399 45.75 66.6399 46.09C65.9699 48.94 63.4399 50.62 60.1599 53.49C68.6299 51.08 76.3799 49.44 84.1399 53.62C89.3199 50.55 97.0199 51.3 95.4199 49.78L97.7199 51.96C99.84 49.68 102.43 48.26 105.81 48.63L103.25 50.87L112.2 50.77C112.56 50.77 113.78 49.34 114.1 49.5L115.42 50.15L116.24 48.8C116.41 48.52 117.71 48.87 117.61 49.18L116.84 51.47L128.62 48.4C129.19 48.25 130.21 49.79 130.57 50.99L140.94 48.96L148.36 50.8L154.55 52.11L153.57 50.15C153.32 49.65 152.84 48.48 153.31 48.61C153.94 48.79 155.56 49.57 155.62 50.06C156.3 56.41 163.93 56.08 164.57 62.39C162.11 60.96 161.65 60.56 159.07 59.77L163.94 65.29L163.76 72.4L162.85 80.35L161.73 87.74C159.1 89.65 156.72 92.39 155.54 95.6L153.05 93.55C152.49 93.09 150.81 94.59 150.24 94.98L142.77 95.44C137.92 95.74 134.86 95.32 129.84 96.07L129.85 96.1ZM97.8499 87.55L110.66 87.22L124.73 87.37L132.31 87.29L145.59 86.71C148.85 86.57 153.41 87.89 155.19 85.97L155.63 79.57C155.05 73.35 154.78 67.49 155.41 61.13L152.23 58.03C150.97 58.72 150.04 59.39 149.48 59.17L146.87 58.13C144.49 59.58 140.25 59.61 137.97 58.29C133.52 60.05 128.33 59.52 127.93 58.86L126.86 57.12C123.74 59.67 120.41 60.14 116.66 59.67L112.36 59.13C103.42 56.49 97.7799 61.29 89.8399 60.32C89.3999 59.01 88.7099 57.23 88.4599 57.71C86.1799 62.19 80.9499 61.45 74.8399 60.25L65.6199 61.79L68.3399 60.86C68.7599 60.72 68.7299 60.7 69.4199 59.42L55.7399 60.77L53.2599 62C52.8999 62.18 52.5299 60.42 52.2499 60.07L48.8599 55.84L53.3799 51.48L58.1799 44.55L64.1399 35.14C65.4899 33.01 73.1899 32.38 70.5099 31.41C70.17 31.28 69.8899 31.17 69.5699 31.2L66.6999 31.48L72.4699 23.81C73.7899 22.05 75.2599 17.69 75.9699 15.77L74.6199 9.05C72.0499 9.07 67.5099 10.24 65.4499 12.35L58.8799 19.11L54.2599 24.2L44.6599 33.04L39.2299 38.31L28.5799 49.75C28.1999 50.16 27.5299 51.49 27.0699 51.43L24.7599 51.1C22.5599 57.3 17.9999 61.89 12.8599 66.47L7.99994 70.8L11.5099 77.72C12.8199 80.31 12.6799 84.17 16.1399 84.32C18.7699 84.43 21.5199 89.03 23.3999 90.65C25.2799 92.27 26.4099 93.39 27.4099 95.2L29.9799 99.88L31.3499 98.27L38.2699 106.19L43.5499 111.85C46.2699 114.77 48.7799 118.11 51.8299 120.6L52.6399 124.43C52.8099 125.23 55.5599 125.97 55.3599 125.67L53.8599 122.19C59.3399 125.4 58.7799 131.81 60.5899 132.09L64.0199 132.63C65.9999 134.15 69.7299 136.71 71.8899 137.49C72.9699 137.88 75.4799 136.4 75.8199 135.42C77.6199 130.28 71.5899 121.07 66.8099 114.79L55.9999 100.6C53.8599 97.79 52.4699 96.33 48.6499 93.7C49.4199 91.77 52.4399 86.74 53.8499 85.54C56.7299 87.24 58.0099 87.8 60.1599 87.8L67.6999 87.82L73.6999 87.84L84.2399 87.69C88.9199 87.62 92.6399 87.67 97.8699 87.53L97.8499 87.55Z" fill="black"/>
</g>
<defs>
<clipPath id="clip0_146_680">
<rect width="164.57" height="146.89" fill="white"/>
</clipPath>
</defs>
</svg>
