<svg width="139" height="170" viewBox="0 0 139 170" fill="none" xmlns="http://www.w3.org/2000/svg">
<g clip-path="url(#clip0_146_630)">
<path d="M98.12 148.27L89.49 141.52L74.88 130.06L68.44 123.85L60.53 130.27L45.52 144.35L29.78 158.5C22.47 165.07 17.24 169.99 8.07999 169.57L3.57999 165.59C2.12999 160.57 1.85999 153.83 2.44999 148.02L0.449994 144.58C1.78999 134.57 1.85999 124.79 0.619994 114.86L1.69999 113.09C1.91999 112.73 0.939994 111.88 0.509994 111.47L1.39999 109.63C0.379994 107.76 -0.130006 105.8 0.0199943 104.12L0.889994 94.29L1.61999 80.93L1.93999 66.28C2.06999 60.02 2.05999 53.81 0.739994 47.64L2.01999 42.17C2.90999 38.38 2.25999 34.59 0.369994 31.03L2.57999 28.86C2.99999 28.45 1.56999 27.11 0.799994 26.35L4.68999 8.31L10.71 2.7C16.24 3.93 22.42 1.23 27.27 0.440001L30.08 7.65547e-07C30.66 -0.0899992 30.77 1.45 30.89 1.96C34.67 0.220001 37.32 0.0100007 40.9 1.41L46.66 0.990001C52.74 0.540001 59.44 -0.459999 65.87 0.290001L73.16 1.13C77.68 1.65 81.93 2.11 86.42 1.47C93.47 0.460001 100.24 2.06 107.12 1.98L123.05 1.81C126.36 1.77 129.87 1.38 132.41 3.85C134 5.39 134.69 8.91 135.02 11.73L136.35 23.1L137.42 48.84L137.47 77.87C137.47 83.38 138.36 88.43 137.13 93.91C136.09 98.59 135.91 103.61 137.07 108.04C138.17 112.26 137.23 116.06 136.96 120.55L136.46 128.59L138.29 140.72C137.06 140.65 136.41 140.66 136.29 140.28L135.46 137.6C134.34 139.5 135.33 141.91 137.87 143.46L135.78 154.02L135.82 163.88C135.83 166.65 129.36 170.95 126.93 169.25L106.17 154.77L98.14 148.28L98.12 148.27ZM97.35 136.98L105.17 142.68L108.62 146.28L127.93 160.24L127.66 155.42L128.33 141.39L130.59 141.15C130.97 141.11 131.02 139.74 130.64 139.69L127.78 139.33L128.7 131.64C127.07 127.38 126.97 122.22 128.65 117.98L128.4 96.72L127.29 92.85C129.45 88.42 129.14 83.3 127.35 78.98L128.74 64.51L128.12 58.53L128.18 49.65L128.59 38.34C128.79 32.8 127.95 28.6 126.71 22.5L131.21 24.45L127.54 21.16L127.74 10.88L120.85 10.65L114.09 10.91C110.8 11.04 108.28 11.62 105.02 10.91C98.69 9.52 91.75 10.76 85.11 10.61L74.07 10.37L63.04 7.83L65.25 10.74C60.52 8.77 58.69 8.46 54.34 10.38C50.81 11.94 45.74 10.2 41.79 9.37C38.95 10.1 34.32 11.95 31.55 11.02C28.44 9.98 27.12 10.8 24.21 10.8H10.96L10.45 21.41L10.1 40.22L8.20999 43.43L9.84999 46.36L10.19 61.3C10.19 61.69 8.41999 62.97 8.62999 63.3C8.83999 63.63 9.58999 64.65 9.59999 65.04L9.80999 72.75L9.63999 93.53L9.21999 107.89C9.09999 111.91 9.41999 115.12 10.84 118.94L7.93999 123.6C11.72 126.98 11.15 131.93 9.16999 137.35C8.79999 137.37 11.34 136.99 11.07 137.49C10.87 137.86 10.22 140.01 10.25 140.67L11.18 161.63L28.36 148.16L35.34 142.03L44.01 133.96L59.87 119.39L68.45 115.14C72.92 116.84 76.08 118.77 79.08 121.94C82.59 122.47 85.24 125.56 87.04 128.81L97.35 136.97V136.98Z" fill="black"/>
</g>
<defs>
<clipPath id="clip0_146_630">
<rect width="138.28" height="169.63" fill="white"/>
</clipPath>
</defs>
</svg>
