<svg width="175" height="181" viewBox="0 0 175 181" fill="none" xmlns="http://www.w3.org/2000/svg">
<g clip-path="url(#clip0_146_661)">
<path d="M30.2 178.83C22.51 182.09 19.37 175.69 12.21 178.12L9.31 174.34C4.26 173.41 3.47 170.24 2.22 166.01C1.18 162.5 -0.11 159.05 0.59 155.17C1.62 149.52 1.11 144.59 1 138.93L0.79 128.31L0.88 114.2L1.27 92.07L1.51 82.71C-1.06 77.89 4.03 69.82 0.96 60.85L1.97 59.19C2.29 58.66 1.13 57.74 0 56.82C0.34 47.82 1.37 38.38 4.23 29.91L8.44 23.94L19.07 21.85L32.57 20.48L34.91 8.46998L36.04 2.69998L47.21 0.95998L52.97 4.93998C54.26 9.65998 54.96 14.78 55.32 20.5L71.27 19.21L80.33 19.92L92.23 19.53L119.06 19.62L121.24 6.24998C123.83 4.82998 125.3 3.38998 126.06 -0.0200195L140.07 3.84998C140.27 7.89998 140.56 9.07998 141.48 12.23L142.63 19.95L152.8 20.74L161.45 22.66C167.53 24.01 170.21 26.97 170.87 33.05L172.7 50.05L173.02 57.23L172.6 65.21C173.52 83.75 174.02 101.46 172.51 119.83L174.11 124.33C171.36 138.89 174.92 150.13 172.09 164.14C171.34 167.86 172.36 172.5 167.96 174.81C165.28 176.21 162 177.53 158.95 177.84L149.69 178.77L139.26 178.42L130.64 178.68L106.63 179.76C102.92 179.93 98.77 179.35 95.13 178.85C88.28 180.14 78.39 180.65 71.89 178.49L65.89 180.08C63.54 180.7 59.5 179.51 57.36 178.9L44.63 180.14C39.61 180.63 34.96 180.32 30.19 178.81L30.2 178.83ZM40.19 37.13C40.26 38.61 42.62 40.77 43.85 40.91C45.08 41.05 48.16 38.84 48.18 37.36L48.55 11.54C48.57 10.33 46.96 8.24998 46.32 7.54998C45.68 6.84998 42.5 7.24998 42.25 8.15998L39.53 18.29C38.95 20.46 39.51 22.38 39.62 24.74L40.2 37.13H40.19ZM133.76 38.42C135.38 34.22 135.34 27.92 135.32 23.5L135.27 12.09C135.27 10.81 134.32 8.45998 133.36 7.66998C132.4 6.87998 129.25 7.16998 128.25 8.04998C127.25 8.92998 127.27 10.81 127.36 12.36L126.25 30.29C126.1 32.68 126.3 35.94 127.51 37.41L129.87 40.28C130.37 40.88 133.39 39.33 133.75 38.4L133.76 38.42ZM92.38 57.27L103.89 56.8L116.84 56.83L126.77 56.17L146.45 55.81L157.43 56.46C159.51 56.58 165.36 56.61 165.26 54.43L164.73 43.05L164.13 34.54C164.04 33.25 163.17 30.05 162.21 29.19C161.25 28.33 159.07 27.62 157.57 27.48L142.11 26.03L141.12 36.09L139.5 41.7C139.46 43.45 139.03 44.79 138.04 42.44C136.87 43.72 135.22 45.51 134 46.24C131.93 47.48 121 44.5 120.59 41.15L118.9 27.18C117.66 24.6 112.14 25.94 109.64 26.04L95.65 26.6C90.32 27.08 84.95 27.22 79.96 25.52L55.63 26.49V35.13C55.64 35.43 55.2 36.51 54.93 36.56L53.7 36.8C53.96 38.4 54.07 41.12 53.38 42.45C52.59 43.97 50.36 45.36 49.35 45.06L51.15 42.48C51.33 42.22 50.13 42 49.9 42.24C49.67 42.48 49.03 43.42 48.88 43.82C47.8 46.72 44.4 47.2 41.31 46.45C36.26 45.21 33.92 42.26 33.39 37.48L32.2 26.85L20.29 28.41C17.61 28.76 13.58 28.34 11.71 30C9.68 31.79 9.55 35.13 9.37 38.1L8.58 51.14L9.48 59.43L27.4 58.05L37.42 57.87L45.46 57.69L54.19 57.32L68.42 57.67L78.43 57.55L92.38 57.26V57.27ZM9.31 142.05C9.58 144.44 9.4 146.07 9.12 148.93C8.42 156.25 9.89 167.59 14.02 170.34C16.42 171.93 20.49 172.36 23.36 172.4L39.07 172.64L53.77 173.01L61.95 173.04L72.72 172.66L85.39 172.44L111.59 172.03L125.36 171.65L138.92 171.69L147.55 170.78C153.12 170.19 159.29 171.43 163.98 167.83L165.51 153.21V135.05C165.51 132.97 166.1 129.97 166.62 128.23C165.24 122.76 165.5 117.17 165.49 111.11L165.41 63.27L142.61 63.08L129.64 63.19L122.29 63.7L106.25 63.29L97.43 63.45L89.58 63.64L79.44 63.88L67.38 64.49C62.57 63.07 58.07 63.14 53.95 64.14L34.64 64.7H23.44L8.92 65.13L9.32 71.32C9.61 75.81 9.46 79.53 8.3 84.35L9.68 91.84C8.09 94.82 7.85 97.47 9.72 99.65C8.31 101.87 8.58 105.77 9.71 108.05L7.73 111.67C10.44 110.61 11.18 111.57 9.2 113.01L9.3 122.1L7.6 127.6C10.36 130.41 10.66 133.25 8.66 136.15L9.32 142.06L9.31 142.05Z" fill="black"/>
<path d="M76.25 141.84C79.6 142.02 80.12 153.31 78.06 155.54C76 157.77 66.49 157.91 64.27 155.93C62.05 153.95 61.95 145.1 63.6 143.22C64.6 142.08 67.45 141.36 69.05 141.44L76.25 141.84Z" fill="black"/>
<path d="M76.81 113.04C79.34 113.24 80 123.28 78.29 125.78C76.45 128.48 67.28 129.06 64.4 126.75C61.85 124.7 62.39 115.35 63.74 114.03C64.71 113.08 67.7 112.31 69.06 112.42L76.81 113.04Z" fill="black"/>
<path d="M46.45 114.74C47.28 117.38 47.29 124.78 45.93 126.3C43.94 128.52 34.18 128.87 32.22 126.99C29.4 124.3 29.64 113.06 33.7 112.83L42.17 112.34C43.31 112.27 46.12 113.71 46.45 114.74Z" fill="black"/>
<path d="M44.77 156.29C41.06 157.47 36.27 157.72 32.74 156.71C29.65 155.83 29.1 142.13 33.65 141.87L41.28 141.42C42.59 141.34 45.8 142.62 46.31 143.81C47.47 146.5 47.4 155.45 44.77 156.29Z" fill="black"/>
<path d="M142.57 113.67C144.14 115.66 144.43 124.7 142.39 126.39C139.69 128.63 131.68 128.62 129.13 126.89C126.58 125.16 125.15 113.17 131.45 112.71L138.47 112.2C139.53 112.12 141.93 112.86 142.56 113.66L142.57 113.67Z" fill="black"/>
<path d="M46.05 84.88C47.35 86.67 47.42 94.92 46.19 96.6C44.3 99.18 32.07 100.55 31.04 95.49C30.5 92.83 30.68 88.82 30.97 85.47C34.6 82.05 44.41 82.62 46.05 84.88Z" fill="black"/>
<path d="M109.58 156.66C106 157.21 100.99 157.44 97.93 156.5C94.87 155.56 94.59 145.73 96.53 143.15C97.28 142.15 99.47 141.36 101.02 141.48L110.25 142.23C112 146.77 112.69 152.62 109.58 156.66Z" fill="black"/>
<path d="M108.93 112.73C111.85 112.85 112.5 123.86 110.18 126.32C107.94 128.7 98.7 128.91 96.85 126.3C94.77 123.38 95.39 115.06 96.5 113.96C97.33 113.13 99.66 112.36 100.99 112.42L108.93 112.75V112.73Z" fill="black"/>
<path d="M143.03 97.25L135.7 98.74C133.93 99.1 130.6 98.53 129.3 97.55C126.5 95.44 126.88 86.57 128.29 84.99C130.15 82.89 137.39 82.72 142.55 84.01C144.02 88.03 143.88 92.5 143.03 97.25Z" fill="black"/>
<path d="M76.71 83.9C79.22 84.75 80 94.32 78.12 96.58C76.13 98.97 66.84 99.24 64.41 97.18C62.26 95.35 61.13 84.77 65.66 83.77C68.78 83.08 73.74 82.9 76.71 83.91V83.9Z" fill="black"/>
<path d="M110.1 96.59C107.93 99.63 100.18 99.33 97.34 97.1C94.76 95.07 94.29 87.44 96.42 85.23C100.12 82.11 106.1 82.94 110.51 84.08C111.43 87.6 112.5 93.23 110.1 96.6V96.59Z" fill="black"/>
</g>
<defs>
<clipPath id="clip0_146_661">
<rect width="174.11" height="180.38" fill="white"/>
</clipPath>
</defs>
</svg>
