<svg width="187" height="150" viewBox="0 0 187 150" fill="none" xmlns="http://www.w3.org/2000/svg">
<g clip-path="url(#clip0_146_637)">
<path d="M65.95 148.67L55.27 149.56L40.77 149.19C37.36 149.1 33.61 149.59 31.11 147.78C30.95 144.78 29.7 145.46 29.59 147.91C27.45 147.95 22.43 148.4 20.13 147.62L5.23 142.61C4.18 135.5 2.15 128.51 2.27 122.28C3.31 116.14 3.31 111.23 1.06 105.63L3.41 106.31C3.74 106.41 4.28 105.1 3.95 104.98L1.47 104.07L1.25 91.73C1.19 88.45 0.76 85.25 1.34 82C2.22 77.13 1.61 72.38 0.21 68.03L1.75 65.93C2.14 65.4 0.75 64.1 0 63.39C0.71 54.09 1.74 44.09 5.54 35.51C7.64 30.76 13.43 28.97 17.71 27.73L16.5 23.06L19.92 19.48C22.67 18.55 27.67 16.59 30.71 16.23L38.48 15.31L44.28 18.33C45.81 19.21 46.32 23.98 46.5 25.24L59.07 25.3L64.48 10.87C65.56 8.00002 71.15 4.56002 74.27 3.22002C77.2 1.96002 82.66 3.28002 85.29 2.55002C89.76 1.31002 93.92 0.740016 98.95 1.87002C103.22 0.0100164 107.25 -0.919984 111.9 1.14002C116.75 -0.0999836 123.57 1.54002 125.81 6.47002L128.64 12.67L131.83 21.53L139.94 20.56C142.94 20.2 145.97 20.27 149.07 20.85C154.37 20.26 159.6 20.66 164.66 22.97C169.59 21.03 173.38 23.22 176.32 27.16C178.59 28.66 180.14 31.21 180.52 34.01L182.67 50.19L183.89 57.71C184.26 60 184.21 62.09 184.22 64.84L184.27 74.9L184.72 84.16L184.92 98.67C185.05 107.61 186.61 113.39 185.96 123.5C185.27 134.29 185.61 145.52 172.93 146.14L154.76 147.03L141.69 146.68L132.7 146.95C121.59 147.28 110.98 148.04 99.87 146.95L93.62 147.37L82.68 147.94L65.93 148.63L65.95 148.67ZM81.03 142.37L93.16 141.73L96.63 141.3L106.79 141.2L122.8 141.04L132.03 140.93L147.79 140.72L159.3 139.82L169.93 138.85C172.4 138.62 175.76 137.77 177.79 136.65L178.31 123.48L178.01 108.83L177.28 100.45L177.48 92.7L176.5 65.52L174.24 38.05C174.03 35.48 174.31 32.84 173.21 31.49C171.8 29.78 168.75 28.56 166.95 28.38L153.11 26.93C149.26 26.53 146.3 26.65 142.37 26.86L131.37 27.44C129.93 27.52 126.73 26.69 125.61 25.59C124.74 24.74 124.4 22.79 123.92 21.2L119.31 7.93002C118.4 7.73002 114.93 7.03002 113.49 7.10002L99.18 7.82002L87.17 8.57002L79.77 9.19002L72.52 9.25002C71.27 15.43 68.85 20.95 65.93 26.43L63.9 30.66C63.39 31.72 59.71 30.81 58.5 30.91L41.38 32.31L25.63 33.59C21.79 33.9 16.03 34.5 12.47 36.25C10.86 37.05 9.47 41.55 9.39 43.48L8.34 67.99C8.27 69.52 9.38 72.73 8.95 74.09C8.07 76.87 8.45 79.63 9.46 81.96C8.99 82.48 7.94 83.47 8.16 83.88L9.31 86L9.22 93.96C10.91 97.02 10.77 98.97 8.51 101.79L10.7 105.38L9.3 107.95C9.08 108.36 9.85 109.65 9.86 110.18L10.01 118.81C10.14 126.15 9.43 132.4 12.08 139.49C19.29 143.11 28.48 142.35 34.95 142.75L46.66 143.47L57.77 142.91L81.05 142.39L81.03 142.37ZM22.56 27.3L40.45 25.36L39.32 21.52C39.02 20.51 35.93 21.48 34.79 21.52L26.23 21.89C25.27 21.93 22.75 23.06 22.63 23.94C22.51 24.82 22.49 26.62 22.56 27.3Z" fill="black"/>
<path d="M125.93 116.8C122.23 121.01 113.91 125.89 108.28 127.45L101.19 129.41C90.28 132.43 72.73 127.56 65.34 120.59L57.83 113.52C55.19 111.04 53.34 108.64 52.07 105.32L51.34 103.41C51.23 103.13 51.21 103.1 51.52 102.99L54.05 102.12C49.64 101.22 50.31 97.92 49.44 94.74C47.26 86.79 47.88 80.42 50.78 72.64C51.45 70.83 51.93 68.03 53.34 66.21C58.43 59.64 63.07 51.84 71.05 49.08L87.53 43.39L94.18 42.86C97.14 42.62 101.02 43.96 104.03 45.01L112.26 47.89L119.95 51.21L116.5 52.47C117.96 53.25 120.51 54.01 122.6 54.34C123.85 54.54 125.21 57.26 126.1 58.29C129.08 61.74 131.06 64.65 132.08 69.16C134.59 72.14 136.29 75.75 134.9 79.45C140.98 89.26 133.72 107.9 125.91 116.81L125.93 116.8ZM73.25 116.77L77.13 118.1C83.94 122.82 92.15 123.94 99.63 121.12C106.17 121.74 112.37 116.92 117.61 112.45C127.47 104.03 130.75 91.06 127.3 78.13C126.17 73.9 124.93 69.79 121.89 66.59C114.13 55.85 102.68 50.51 89.64 50.71C88.6 49.82 85.95 51.67 84.68 52.52C72.85 53.39 70.44 62.06 64.17 63.55L60.81 70.22L57.68 76.42C55.27 85.86 56.65 98.2 62.4 105.85L66.94 111.9C68.09 113.43 71.43 116.15 73.25 116.77Z" fill="black"/>
<path d="M149.63 57.7C147.56 54.98 146.68 53 147.61 49C148.89 45.67 151.98 43.59 155.31 43.66C157.93 43.47 162.47 46.07 162.82 49.52C163.17 52.97 161.88 56.69 159.5 57.68C156.01 59.13 153.84 58.91 149.63 57.71V57.7Z" fill="black"/>
<path d="M116.57 90.87C113.72 100.46 110.83 106.19 100.14 109.3C94.4 110.97 89.46 111.75 84.63 107.85L81 107.95C80.11 107.97 79.4 105.95 79.13 105.1C75.27 103.7 73.06 100.98 71.2 96.97C65.03 83.69 73.36 67.54 87.59 64.48C94.22 63.06 99.01 63.8 104.39 66.82C110.35 70.17 113.33 74.95 115.41 81.05C116.62 84.59 117.63 87.3 116.57 90.87ZM106.5 98.24C113.59 90 111.33 75.93 101.08 71.48C97.37 69.87 91.29 68.15 88.56 69.75C82.57 73.27 77.06 77.77 75.46 84.01C74.02 89.62 77.13 94.75 80.04 99.48C79.48 101.7 80.23 102 81.8 99.99C90.09 106.52 99.45 106.43 106.5 98.24Z" fill="black"/>
</g>
<defs>
<clipPath id="clip0_146_637">
<rect width="186.13" height="149.57" fill="white"/>
</clipPath>
</defs>
</svg>
