<svg width="167" height="191" viewBox="0 0 167 191" fill="none" xmlns="http://www.w3.org/2000/svg">
<g clip-path="url(#clip0_146_646)">
<path d="M78.53 186.75C73.52 191.44 66.02 186.46 56.05 187.99L49.23 187.38C42.7 188.07 36.69 187.71 30.64 187.13L16.19 185.74C12.63 185.4 8.21 185.85 5.32 184.51L1.15 182.58C0.14 182.11 0.34 179.04 0.3 177.86L0 168.38L1.27 155.55L1.97 147.06L2.2 140.58L2.55 132.15L3.3 125.8L4.83 109.28C5.53 101.66 5.85 94.93 5.35 87.29C5.08 83.23 6.96 78.86 7.5 75.06L9.18 63.24C9.61 60.24 9.22 56.58 14.17 55.95L27.4 54.25C29.19 54.02 33.01 54.48 34.98 53.72C38.93 52.17 38.15 34.3 45.35 22.58L45.82 19.61C45.92 18.96 48.04 19.05 48.84 18.97L52.37 12.7L61.79 6.34L65.46 4.16C70.14 3.93 74.82 2.48 79.24 0.85L87.6 0L100.14 2.49L107.37 6.91C115.31 11.77 119.86 19.17 123.07 27.37C125.52 33.62 129.08 39.31 126.73 46.94C129.13 47.5 131.94 47.52 135.26 47.71L142.55 48.12C146.97 48.37 149.06 52.47 149.65 55.94L156.39 95.29L157.47 105.3C157.68 107.26 158.02 110.34 158.66 111.95C159.96 115.24 159.95 121.23 160.12 125.21C163.08 129.19 160.96 131.32 162.27 139.75L163.84 149.86L165.11 159.09C165.89 164.8 168.18 171.7 163.9 177.23L157.79 180.22C155.01 180.76 152.37 181.98 149.88 183.93L143.99 188.54C142.07 190.04 137.21 189.77 134.32 189.84L124.25 190.12L110.94 189.92L93.58 189.34C88.38 189.17 82.66 190.22 78.56 186.75H78.53ZM122.52 48.01L118.65 32.98L115.43 26.01L111.35 19.05C106.67 11.06 97.54 6.2 87.67 6.24C94.53 9.55 97.95 15.02 101.25 21.31C102.44 23.57 103.59 25.51 104.03 27.88L106.21 39.53L107.26 49.87L122.52 48.03V48.01ZM59.24 52.55L93.83 50.09L101.2 49.36C101.31 46 100.65 42.2 99.55 38.16L97.26 29.76C95.15 18.17 86.47 9.61 74.71 8.41L67.9 15.78L63.96 23C62.88 24.98 61.18 29.43 60.95 31.62L60.09 39.9L59.23 52.56L59.24 52.55ZM53.16 52.59L53.25 46.82C53.35 40.49 54.09 33.44 56.01 26.98L59.19 16.3C53.85 20.5 51.4 25.85 48.3 31.6C46.47 35 45.52 38.2 44.8 42.18L42.75 53.53L53.17 52.59H53.16ZM140.46 171.96L139.92 182.32L158.78 171.91L156.99 157.41L155.89 146.11L153.27 126.33L151.83 115.49L150.98 106.74L147.58 86.91L143.11 58.58C142.95 57.57 143.53 54.66 142.76 54.5L138.66 53.69L139.89 78.57L139.65 91.15L140.1 105.01L141.04 117.39L137.89 115.64L140.43 118.66C140.86 119.17 140.63 120.18 140.22 121.69C139.6 123.93 140.66 127.21 140.64 129.12L140.48 143.49C140.45 145.99 139.31 150.55 139.95 152.79C140.92 156.18 141.44 158.66 141.22 161.62L140.45 171.96H140.46ZM8.8 149.29C8.23 151.9 7.9 155.22 8.36 158.01C7.82 160.22 7.27 162.84 7.17 164.95L6.53 178.81L25.99 180L34.21 180.59L41.63 180.99C44.21 181.13 45.43 181.5 47.77 181.2L61.39 181.7L75.62 182.24L85.1 182.73L96.38 182.88L111.56 183.42L126.76 183.6L133.49 183.39L133.43 163.46L133.31 148.02L133.49 138.49L133.44 115.05L133.48 103.31L132.43 67.33L132.05 54.48L107.4 55.78L107.26 63.48C107.23 65.15 106.75 67.38 107.52 68.52C108.52 70.01 109.29 71.97 109.23 73.34C109.18 74.39 107.63 75.86 106.53 76.09C103.06 76.8 100.88 76.41 99.65 72.88C99.09 71.28 100.46 69.02 102.6 67.44L100.91 56.46L92.18 56.78C87.93 57.93 84.43 58.23 80.21 58.3L73.62 58.4L60.5 58.95L44.32 60.21L46.58 69.08C46.91 70.36 48.26 73 48.19 74.36C48.12 75.65 45.52 77.45 44.31 77C43.1 76.55 40.87 74.85 40.34 73.67C39.81 72.49 42.03 69.97 43.06 69.1C41.34 66.53 39.72 63.03 39.44 60.3C29.37 63.13 22.76 58.12 15.24 62.76L14.25 75.18L12.99 91.06C12.67 95.12 12.81 98.81 11.82 103.01L11.93 113.28C10.33 110.62 9.93 111.65 10.73 113.61L10.34 125.5L8.8 149.28V149.29Z" fill="black"/>
<path d="M77.41 148.34C75.76 149.79 73.25 151.54 71.68 151.57C69.54 151.62 66.81 150.06 65.14 148.57L57.63 141.86L52.14 136.22C46.27 130.19 42.74 121.23 44.56 112.8C45.83 106.91 50.78 102.55 55.67 102.23C61.95 101.82 67.14 105.21 70.09 111.06C73.24 106.69 77.29 102.72 82.07 101.65C88.85 100.14 95.6 103.63 97.59 109.56C99.3 114.67 99.08 119.46 97.31 124.4C96.53 128.64 93.79 132.08 90.21 134.54C88.91 138.69 86.25 141.68 82.64 143.72L77.41 148.33V148.34ZM61.86 138.8C64.36 141.6 68.02 144.65 70.95 146.1L78.25 140.62C80.31 141.56 80.15 140.78 78.7 139.62L88.51 128.63C92.94 123.67 94.65 115.61 91.96 109.87C90.34 106.41 86.03 105.66 82.87 106.84C73.64 110.31 73.86 117.68 70.6 118.17C67.77 118.6 62.62 102.93 53.88 108.18C49.15 111.02 49.46 119.19 51.66 123.29C50.94 124.33 50.43 124.75 50.8 125.14C53.37 127.84 53.43 129.35 56.92 133.26L61.86 138.79V138.8Z" fill="black"/>
</g>
<defs>
<clipPath id="clip0_146_646">
<rect width="166.4" height="190.12" fill="white"/>
</clipPath>
</defs>
</svg>
