<svg width="195" height="176" viewBox="0 0 195 176" fill="none" xmlns="http://www.w3.org/2000/svg">
<g clip-path="url(#clip0_146_609)">
<path d="M83 156.42C77.58 156.01 71.65 156.2 66.97 154.97C66 154.72 64.21 152.6 63.54 153.13L60.47 155.55L47 164.06C42.27 167.05 28.13 180.59 22.41 173.74C21.5 172.65 21.38 170.03 21.85 168.33L24.77 157.73L26.68 150.93L32.76 135.75C25.71 133.03 15.78 123.68 14.55 119.89C13.78 117.51 12.48 116.07 10.55 114.55L10.45 112.35C10.42 111.69 9.06001 110.92 8.36001 110.45L6.70001 109.3C6.42001 109.1 6.57001 108.36 6.93001 108.32L9.26001 108.05L5.56001 105.39C5.52001 102.28 4.75001 99.3 3.88001 96.22L1.78001 88.82L0.0800058 79.01C-0.289994 76.87 0.710006 74.88 1.59001 72.41C4.14001 65.23 2.39001 58.63 6.95001 53.96L8.46001 46.55C16.87 41.39 16.91 32.97 21.34 30.61L18.82 36.02L24.06 30.16L34.19 19.33L35.61 20.5L43.8 13.52C49.59 13.46 54.63 10.59 59.07 7.06C62.33 6.98 66.07 6.62 69.22 5.33C72.14 4.13 75.42 4.11 78.21 3.7L87.38 2.32L99.77 0.89C104.64 1.4 109.17 1.02 113.99 0.0100002C118.35 2.06 123.76 2.86 128.04 1.39C132.11 4.41 136.91 3.31 144.78 6.75L150.91 9.43C151.25 9.58 151.53 9.25 151.35 8.98L150 7.01C153.46 5.49 153.79 11.91 156.23 12.09L162.5 12.56L167.05 16.78C167.31 20.97 171.81 23.63 175.47 24.8L177.54 25.46C177.86 25.56 177.71 26.91 177.38 26.89L174.43 26.72L180.16 29.71L181.4 37.56C182.97 39.34 186.07 42.47 186.7 44.57L189.81 54.92C191.06 59.07 192.81 62.1 192.97 66.36L193.46 78.92C193.46 79.88 195.08 81.68 194.75 82.51L193.38 85.99L191.21 98.1L188.94 105.15C187.9 108.39 186.58 112.02 185.92 115L177.86 122.52L181.93 122.28C178.38 127.53 171.93 130.15 167.13 134.56C164.73 137.26 163.99 142.73 157.66 141.75C151.63 149.64 147.3 143.68 142.91 149.08C138.11 154.98 131.11 150.12 126.77 153.52C122.56 156.82 118.2 157.07 113.85 154.83L104.24 157.88C102.17 158.54 97.98 157.54 95.83 157.38L83 156.41V156.42ZM95.58 150.4C98.67 150.66 103.47 149.31 106.4 148.99C110.64 150.17 114.15 149.67 117.56 147.54C123.23 147.63 128.82 146.04 133.6 143.34C134.86 143.37 137.62 143.31 138.75 142.81L145.24 139.95L152.29 136.42L168.03 123.95C169.86 122.5 172.53 118.87 173.69 116.99L180.19 106.44C178.07 104.54 183.1 99.32 183.4 95.84L184.21 86.69L184.93 79.33L184.3 68.49C184.12 65.46 184 62.81 183.06 60.11L180.13 51.7L173.59 37.24L172.97 35.03C173.17 35.74 163.81 26.53 157.41 22.32L150.64 17.87L146.47 14.4L137.43 13.48C132.36 10.19 126.85 9.62 121.14 10.41C115.73 7.1 109.66 7.77 103.75 9.37L95.6 9.96C91.13 9.59 87.95 9.67 83.66 10.53L72.36 12.79L56.58 16.57C55.57 17.33 52.99 19.41 51.7 19.72C42.7 21.9 32.44 30.82 25.49 38.7L19.53 45.46C17.29 49.42 14.27 53.83 13.16 57.94L9.32001 72.21C8.02001 77.05 9.09001 91.33 11.85 98.12L16.41 109.36L18.45 114.08C21.21 114.15 21.88 117.31 23.36 119.6C29.73 129.39 40.59 129.81 38.19 138.03L31.62 160.57L30.13 167.13L44.61 157.64L57.82 148.56C61.06 146.65 67.79 148.08 71.89 148.42L83.76 149.42L95.57 150.42L95.58 150.4Z" fill="black"/>
<path d="M62.13 88.77C60 89.81 55.93 90.12 54.08 89.4C52.4 88.75 50.11 85.93 50.08 84.06C50 79.48 51.74 76.69 55.05 75.54C58.81 74.23 62.63 75.41 64.57 78.65C66.46 81.8 66.62 86.57 62.13 88.77Z" fill="black"/>
<path d="M103.12 87.19C99.14 89.31 94.89 89.26 92.42 86.83C90.25 84.69 89.73 80.29 91.06 77.5C92.7 74.06 97.34 73.07 101.53 74.48C103.31 75.08 105.17 77.97 105.59 79.67C106.2 82.18 105.43 85.97 103.13 87.2L103.12 87.19Z" fill="black"/>
<path d="M135.13 73.3C139.25 71.71 143.82 72.75 145.26 76.76C146.7 80.77 146.14 84.96 141.51 86.93C138.01 88.43 133.26 87.87 131.4 83.67C129.82 80.1 130.98 74.89 135.12 73.29L135.13 73.3Z" fill="black"/>
</g>
<defs>
<clipPath id="clip0_146_609">
<rect width="194.79" height="175.65" fill="white"/>
</clipPath>
</defs>
</svg>
