<svg width="168" height="171" viewBox="0 0 168 171" fill="none" xmlns="http://www.w3.org/2000/svg">
<g clip-path="url(#clip0_146_606)">
<path d="M137.01 112.35L131.6 119.95L131.8 121.93C131.82 122.1 130.84 122.84 130.88 122.87C130.93 122.91 130.23 122.04 129.43 121.04C125.6 124.56 127.31 129.92 125.68 129.73L123.15 129.43C119 132.66 115.84 137.22 113.99 142.34L110.32 142.84C106.12 148.98 100.93 153.99 95.42 159.11L90.59 163.6L92.31 166.49C90.28 167.67 85.6 168.99 83.46 168.19C83 168.02 81.97 166.48 81.56 166.21C81.15 165.94 79.95 166.97 80.26 167.4L81.78 169.46C82.04 169.82 78.91 170.44 78.66 170.07L72.3 160.65L67.43 159.39L66.91 158.17L71.09 158.32L62.84 150.14C62.96 150.12 60.83 152.28 60.73 151.71L60.13 148.19C59.59 145.01 55.87 142.81 52.71 141.25L47.53 134.82C43.53 129.85 40.64 129.83 41.13 129.48L43.38 127.88L35.9 119.18L36.79 122.8C31.15 122.47 35 113.39 27.06 112.03L28.74 110.71C29.03 110.48 29.25 109.45 29.12 109.4L25.46 108.98C24.47 108.87 24.52 105.8 24.98 104.45L14.34 91.53C14.81 89.32 14.53 88.16 13.66 86.68L3.77 69.87L7.45 70.41C5.34 67.29 3.8 64.92 3.31 61.89L0 41.18L1.18 33.8C2.51 25.5 11.18 10.43 13.42 9.14L20.31 5.2L27.63 1.77L38.54 -0.0100002C42.67 1.47 47.45 2.05 52.2 1.05L57.9 5.29L68.84 13.76C67.66 19.73 78 21.46 77.94 36.15L81.35 42.44C84.44 33.2 91.77 32.11 90.94 25.19L100.3 17.84L105.44 11.19L109.81 11.33C118.04 0.22 122.49 6.58 131.69 2.41L145.18 4.98L153.83 11.48L151.67 12.68L150.42 13.38C148.17 14.63 155.89 13.9 156.3 14.29C157.14 15.07 158.02 16.97 158.65 18.41L164.39 31.7L167.05 39.58C165.73 39.44 163.64 39.09 163.56 40.07C163.45 41.41 163.18 44.97 163.19 44.89L166.79 41.18C167.52 43.54 166 46.29 165.88 48.05L165.25 57.28C164.98 61.3 163.91 65.01 162.69 68.92L160.74 75.17L159.62 78.77C159.37 79.57 155.92 78.67 156.44 78.03L159.3 74.52C156.46 73.95 155.11 76.77 155.26 78.54C155.46 80.91 156.18 82.2 157.68 85.14L154.08 86.29L150.79 92.72C151.17 93.3 152.32 95.7 151.64 96.61C150.69 97.88 149.07 98.39 146.7 98.1L143.61 102.85L147.7 101.86L144.74 104.96C142.51 105.6 140.97 106.21 139.38 107.01C140.47 108.2 141.32 108.86 141.05 109.3L139.9 111.19L138.63 108.91C138.39 108.48 136.83 109.22 136.86 109.7L137.03 112.32L137.01 112.35ZM21.84 12.57L27.91 7.09C29.31 5.82 34.48 8.56 35.65 3.69L21.07 8.61C17.29 9.89 14.38 13.95 11.2 17.49C16.07 19.45 18.74 15.37 21.84 12.57ZM103.64 124.93L107.5 118.17C108.95 115.63 110.38 113.09 112.04 111.02L111.3 107.37C111.37 107.72 118.64 106 117.09 104.27C116.59 103.71 115.53 102.52 115.53 102.52C116.8 101.47 117.81 100.44 118.67 99.34L124.05 92.52L122.16 90.52C121.96 90.31 123.05 90.33 123.34 90.37L125.07 90.6C124.69 89.27 123.55 86.19 124.64 85.77L129.13 84.03L129.81 79.38C132.91 77.28 134.13 73.54 133.51 70.23L138.99 65.57C138.2 64.53 136.95 62.83 137.61 62.63L140.36 61.82C140.96 61.64 142.17 60.8 142.63 60.41C143.09 60.02 141.35 58.83 140.57 58.41L143.81 50.97C144.92 48.42 144.92 45 145.14 42.13L146.15 29.07C146.57 23.58 141.64 14.21 135.22 14.98L137.63 11.84L127.01 13.49L121.05 14.57C118.24 16.95 114.93 18.9 112.09 20.34C111.66 21.39 110.55 23.28 109.81 24.18L104.64 30.48L101.76 28.68C101.12 28.28 99.52 30.17 99.28 30.71L101.87 30.31C102.38 30.23 103.47 31.57 103.59 32.01L97 37.68C96.61 41.43 93.29 40.93 92.39 47.09C92.3 47.7 91.54 49.25 91.19 48.83L89.53 46.85C88.62 48.72 86.84 52.38 86.67 54.43L85.53 68.44L81.02 64.24L78.34 69.12L73.25 62.44L74.72 60.53C74.99 60.18 73.95 58.99 73.92 58.53C73.74 55.94 72.33 53.89 71.43 50.97L68.93 42.86L67.17 36.15L61.38 21.38L52.33 12.75C49.71 10.25 42.67 9.15 39.39 9.79C34.52 10.74 31.55 15.52 29.71 19.03L26.88 24.4L24.92 19.41C22.09 21.63 21.32 25.32 23.35 29.33L18.56 39.76C20.25 39.87 23.19 40.54 22.7 41.22L20.95 43.66C20.27 44.61 18.16 47.45 19.02 48.26L22.48 51.53C22.87 51.9 23.74 53.57 23.97 54.04C24.2 54.51 23.3 54.99 22.79 54.98L20.57 54.95L26.27 63.69L21.59 62.95L25.07 70.61C26.47 70.22 29.2 70.35 29.23 71.46C29.26 72.57 28.43 74.14 27.3 75.46C26.51 76.38 27.25 78.92 28.29 80.33C28.92 81.17 30.53 81.43 32.4 81.81L37.1 91.3H32.97L35.43 97.86L36.37 97.39L35.98 93.02C40.05 96.29 41.84 99.86 42.78 103.58C42.06 104.36 41.18 105.89 41.75 105.85L44.02 105.68C44.4 105.49 45.59 105.01 45.49 105.42L44.96 107.59C44.76 108.42 44.4 109.36 44.71 109.76C44.91 110.03 45.64 110.9 45.65 110.87C45.66 110.84 46.48 109.68 47.04 108.85L47.6 114.93L49.88 113.06C50.23 112.78 50.87 114.13 50.83 114.6L50.64 116.81L53.5 120.56C55.46 120.99 58.16 122.17 58.09 123.32L54.88 122.71C54.52 122.64 54.41 123.82 54.71 124.01L56.34 125.03C57.89 126 59.87 127.56 61.41 129.07C61.22 129.45 59.45 130.37 59.05 129.91L57.52 128.17C57.03 127.94 54.81 130.29 55.58 130.86C56.43 131.48 58.02 132.19 59.16 132.55L64.52 135.56L67.95 136.84C68.73 137.13 68.32 139.88 68.01 139.85L65.75 137.79C65.32 137.4 63.47 139.16 63.87 139.58C66.81 142.6 69.25 140.28 70.63 142.09C71.3 142.97 71.69 145.17 72.11 146.44L74.26 152.9L81.35 155.32L80.67 160.21L88.79 147.93C89.74 146.49 89.83 144.58 88.85 143.09L93.41 136.84C94.03 137.55 95.37 139.15 95.66 138.58L97.17 135.67L98.74 132.63C99.01 132.12 97.53 130.71 97.52 130.38C99.03 129.07 102.7 126.63 103.67 124.93H103.64ZM97.55 148.83L105.49 140.77C106.94 139.3 108.52 136.24 109.79 134.39L120.58 121.47C122.35 121.44 124.31 120.65 125.29 119.29L121.08 119.74L125.29 115.17C128.33 114.85 129.97 113.63 130.41 111.15L127.23 112.76L127.41 111.35L133.38 105.22C135.1 101.04 136.85 97.58 139.08 94.82C140.68 97.6 141.29 96.99 140.73 94.9C142.04 89.17 145.4 85.18 149.53 80.85L152.6 71.49C155.71 68.77 155.5 66.94 156.2 63.39L158.45 52L158.42 38.74L158.97 29.08C159.04 27.86 158.08 24.53 156.92 24.68L152.5 25.26L155.09 27.44C155.33 27.64 154.49 28.28 154.16 28.32L151.07 28.77L153.51 36.12L155.13 32.4C155.35 31.89 157.34 31.93 157.3 32.51L157.1 35.81C156.95 38.27 154.84 42.43 154.25 44.58C154.73 52.3 150.19 62.63 144.82 70.24C144.44 71.74 143.67 75.19 142.61 76.42L135.21 84.96C131.85 88.84 130.21 94.82 128.14 99.85L124.89 98.03C124.4 99.44 124 102.62 123.95 104.56L121.62 106.75C121.12 107.22 121.76 109.13 121.8 109.9L115.71 120.2C113.3 122.84 109.15 125.15 108.31 128.76L106.64 135.97C106.46 136.73 105.38 138.13 104.72 138.32C104.06 138.51 103.15 137.15 103.06 136.47L102.68 133.45L100.54 139.67C99.45 142.84 97.88 145.68 97.53 148.85L97.55 148.83ZM17.65 58.81L17.91 56.65C16.45 56.3 14.77 55.93 14.96 55.35L15.92 52.41C16.09 51.88 15.95 50.56 15.83 49.99C15.23 47.21 14.11 54.16 13.24 53.66L9.69 51.66L10.65 58.3C12.04 57.28 13.27 55.99 13.8 56.33L17.65 58.79V58.81Z" fill="black"/>
</g>
<defs>
<clipPath id="clip0_146_606">
<rect width="167.05" height="170.17" fill="white"/>
</clipPath>
</defs>
</svg>
