<svg width="197" height="180" viewBox="0 0 197 180" fill="none" xmlns="http://www.w3.org/2000/svg">
<g clip-path="url(#clip0_146_599)">
<path d="M168.99 149.23C169.77 151.33 171.91 155.28 171.67 157.55L170.48 168.48C170.12 171.75 168.76 176.37 165.25 178.16L151.97 179.06L141.14 179.51C138.51 179.62 134.29 178.43 131.33 178.59L125.01 178.93L117.26 179.13C114.3 179.21 109.61 177.15 106.84 178.37C101.67 180.64 97.44 179.22 92.26 179.05L79.25 178.64C74.6 179.89 69.75 180.53 65.23 178.84C60.6 180.02 55.99 180.03 51.29 178.98C47.19 179.78 43.18 179.42 39.09 178.64C34.13 179.12 27.9 178.92 26.16 176.22L22.54 170.62C24.91 160.1 22.43 153.57 23.79 145.13L22.16 133.75L23.86 121.42L21.41 118.14C20.86 117.4 22.48 115.11 22.97 114.17C22.66 108.76 22.74 102.55 23.38 97.05L24.05 91.24L14.36 95.08C10.25 96.71 2.82 96.16 2 92.34L0.0200005 83.03C0.67 82.32 1.67 80.56 2.2 79.08C6.05 77.6 12.11 75.13 14.01 70.72L15.69 66.8C16.1 65.84 18.89 66.43 19.92 66.1C22.05 64.66 26.07 61.49 27.72 59.43C33.14 52.66 40.37 49.69 46.57 43.75L53.38 37.23C54.99 33.6 57.19 31.39 61.13 30.56L63.91 29.98C64.42 29.87 63.8 28.29 63.45 27.29C67.34 27.98 69.26 24.8 71.23 21.64L75.87 14.18C81.55 15.54 83.69 12.58 85.74 7.91C86.96 5.12 92.93 2.82 95.72 1.49L98.79 0.0300008C100.09 -0.589999 100.88 4.21 106.42 4.6C106.79 4.63 108.37 5.21 108.15 5.47L106.42 7.48C109.14 8.66 112.04 10.19 114.55 13.21L109.47 11.01L116.86 18.73L116.56 14.72L121.62 19.89C121.06 24.92 124.88 27.12 129.01 28.44C132.05 30.48 135.92 33.66 138.92 36.08L138.3 25.84L137.53 22.16C137.09 20.09 141.03 19.64 142.17 15.92C148.2 20.23 156.55 14.55 166.23 18.29L170.43 22.02C170.71 22.19 171.02 23.44 170.51 23.63L167.89 24.56L172.3 30.38L170.53 39.28C169.95 42.19 170.19 43.51 170.39 46.07L171.32 57.91L168.08 55.92C168.08 56.58 169.42 58.78 170.75 60.47C170.95 60.24 170 61.34 169.7 61.71C169.64 61.79 172.63 73.28 182.06 73.87L188.56 80.15C190.24 90.68 197.26 91.23 196.69 92.32L194.96 95.66L195.75 97.58C195.97 98.11 194.62 99.66 194.11 99.42L191.48 98.18C190.42 97.68 188.22 98.47 186.35 99.3C184.91 99.94 182.19 97.42 180.64 96.77L168.79 91.77L169.33 95.28L171.27 107.22C171.66 109.64 170.87 113.64 170.19 116.09L170.6 120.26L172.15 133.41C172.21 133.96 170.27 135.35 170.42 135.89L171.3 139.21C171.84 141.25 171.78 143.74 171.01 145.69L172.67 150.95L169.01 149.23H168.99ZM88.96 109.9L96.68 108.03C99.19 107.42 104.42 108.39 106.76 108.67C108.47 112.04 109.33 111.78 112.05 112.52C119.74 114.63 125.2 140.66 124.45 150.09C124.41 150.59 121.8 152.08 122.27 152.26L125.24 153.36L122.73 167.51L124.7 170.56L126.98 169.42C127.54 169.14 129.03 170.04 129.65 170.01L133.11 169.82C139.64 168.85 146.2 169.28 153.41 168.81L161.31 168.3L161.08 161.54L161.39 156.15L161.17 145.53C161.1 142.25 161.49 138.11 161.78 134.48C163.64 132.9 162.93 132.36 160.49 133.68L161.07 124.07L159.54 116.24L161.99 113.47C162.45 112.95 160.95 110.58 160.98 109.81L161.86 89.92C161.95 87.97 160.63 84.18 164.39 83.54C166.62 83.37 170.42 84.98 173.9 85.87L164.99 75.98C162.86 75.42 158.51 73.45 157.36 71.47C157.14 71.09 158.21 68.83 157.81 68.95L155.53 69.65C152.22 63.54 143.19 59.58 137.37 53.96C131.79 48.57 127.25 43.43 120.88 39.28C119.06 36.08 116.11 33.97 112.93 32.34C111.83 30.03 109.76 28.38 108.14 27.55C105.26 23.74 102.48 20.44 99.34 16.87L97.62 14.91C97.27 14.52 96.32 15.9 95.89 16.31L85.61 26.15L81.68 29.91C84.29 38.16 71.27 35.43 62.53 45.72C62.97 47.77 62.55 50.2 61.09 51.07C59.63 51.94 58.07 52.23 55.7 52.54C52.66 52.94 50.05 55.94 47.58 58.23C45.11 60.53 41.08 62.88 39.44 65.62C37.59 68.7 36.49 70.28 33.29 72.47L35.21 66.88L24.8 75.52C25.36 78.32 24.07 81.39 20.73 81.51L23.57 77.04C19.24 78.57 14.94 84.26 7.07 88.47C14.02 88.03 20.15 85.55 26.05 82.02L31.27 88.32L29.66 91.26C29.35 91.83 31.63 93.42 31.69 94.14L33.14 111.83C33.46 115.78 33.42 118.47 33.01 122.15L32.17 129.65L33.77 132.19C34.11 132.73 31.68 134.39 31.85 135.01L34.5 144.85C32.92 149.71 32.59 153.97 35.52 158.76L32.4 158.22L33.34 171.25L46.51 169.54C48.71 169.25 53.07 169.36 55.21 169.39L56.71 171.64C56.96 172.01 58.26 170.5 58.74 170.46L72.01 169.38L71.19 164.06L71.05 144.94L71.82 135.52C72.44 127.89 75.01 118.42 81.3 117.41L79.56 115.64C78.79 114.85 83.88 111.18 88.97 109.95L88.96 109.9ZM161.41 48.69C161.24 40.93 163.46 35.31 163.25 26.37L154.59 26.25L144.81 25.79C146.22 31.38 146.04 37.47 145.18 44.34C148.66 43.79 151.61 47.22 152.76 50.33L156.45 51.26C157.19 51.45 156.58 53.14 156.03 54.46C155.75 56.32 161 58.64 161.6 57.47L161.41 48.69ZM101.56 170.56L113.16 169.17L113.37 157.67L113.41 153.19C113.48 144.37 112.21 135.76 110.54 126.75C106.66 120.53 100.54 116.64 93.95 117.38C90.83 117.73 88.53 122.44 86.68 123.95C83.33 126.69 82.33 128.12 81.79 132.42L80.59 141.97C79.71 148.99 81.41 154.68 79.94 158.65L80.85 160.96C81.01 161.37 80.33 162.25 80.23 162.55L81.02 169.42C91.97 171.99 96.5 167.96 101.58 170.54L101.56 170.56Z" fill="black"/>
</g>
<defs>
<clipPath id="clip0_146_599">
<rect width="196.7" height="179.87" fill="white"/>
</clipPath>
</defs>
</svg>
