<svg width="117" height="188" viewBox="0 0 117 188" fill="none" xmlns="http://www.w3.org/2000/svg">
<g clip-path="url(#clip0_146_675)">
<path d="M69.48 187.2L44.43 187.27C43.38 185.82 40.78 184.57 38.81 184.69C34.52 184.96 31.41 183.7 27.32 182.61C19.12 180.42 10.68 177.35 3.97999 171.86L2.92999 165.07C3.44999 162.85 5.99999 158.42 7.47999 156.55C11.19 156.35 14.13 153.61 16.73 152.97L28.57 150.06C29.59 149.81 32.22 150.75 32.68 151.67C33.05 152.41 32.61 154.67 31.86 155C29.3 156.13 16.05 156.61 11.04 164.56C8.48999 168.6 14.55 170.86 16.95 171.83C22.98 174.27 28.23 176.03 34.4 177.12C43.42 178.71 52.01 180.34 61.5 179.57L80.4 178.04L91.35 175.68C97.12 174.44 106.02 170.4 106.49 166.69C107.33 159.94 96.64 156.63 87.66 155.32C86.67 155.17 84.86 152.6 85.5 151.88C86.14 151.16 88.73 149.68 89.74 149.98L101.33 153.35C109.06 155.6 114.65 161.85 113.44 168.75C113.09 170.74 111.29 172.57 109.05 174.53L108.03 176.76C107.83 177.19 106.09 176.76 105.66 177L96.66 182.18L91.72 181.22C88.22 185.76 83.04 183.49 78.71 184.68L69.47 187.22L69.48 187.2Z" fill="black"/>
<path d="M78.3 147.09L66.4 163.12C65.18 165 62.7 167.24 60.59 167.73C58.86 168.13 55.49 166.19 54.27 164.79L49.44 159.25L43.86 152.87C41.14 149.76 39.07 146 37.74 142.15C34.96 139.27 32.38 136.42 30.83 131.75L28.02 129.33C26.61 127.55 24.13 124.12 23.49 122.1C21.89 117.05 18.57 113.24 16.15 108.97L12.1 101.83L6.07 86.25C3.49 79.59 1.62 72.1 0.769999 65.44C0.329999 61.99 1.74 57.6 0.629999 54.32C-0.860001 50.28 0.439999 46.61 3.41 44.19C2.27 39.46 3.98 35.31 6.89 31.94C7.14 30.07 7.9 28.35 9.03 26.98L15.86 18.7C18.13 15.95 19.51 14.2 22.84 12.54C26.72 10.61 31.06 6.36001 34.84 5.05001L50.57 1.08001C53.73 0.280014 58.99 -0.239986 62.02 0.130014L69.37 1.76001C73.55 -0.729986 76.88 1.62001 79.63 3.68001C84.58 4.39001 88.84 6.96001 92.7 10.04L98.86 14.95C104.32 19.31 110.43 30.6 112.73 38.46L115.68 48.55C113.24 49.39 113.38 50.2 115.79 50.09C116.91 53.35 117.31 57 116.18 59.94L113.89 52.99C112.9 55.38 113.46 58.31 114.8 60.74C117.12 64.93 116.16 68.09 115.01 72.56L110.95 88.38C110.85 88.78 108.55 89.5 108.81 89.82L110.3 91.63L107.51 97.1C107 99.89 106.07 101.68 104.46 104.3L100.45 110.81L94.72 122.5L90.02 129.44L84.42 138.28C82.65 141.07 81.35 145.08 78.29 147.08L78.3 147.09ZM39.34 130.49C42.87 132.66 45.55 136.94 44.75 141.62C49.35 144.28 54.76 150.11 55.5 153.74L59.64 158.63L66.83 148.61L72.57 141.94L79.58 130.4L84.99 121.76L89.67 114.55L92.67 108.44L103.05 85.3C109.11 67.13 109.62 47.3 100.29 30.78C96.54 24.14 90.37 20.26 84.82 15.95C79.22 11.6 71.94 10.3 65.27 10.57C64.23 10.34 62.1 8.25001 61.18 8.55001L57.39 9.76001C54.72 9.23001 49.72 9.80001 47.49 11.32L40.95 12.42C41.01 12.55 39.79 11.35 39.4 11.75L37.61 13.61L24.95 22.64C21.63 25.01 19.08 29.08 16.84 32.62C11.96 40.34 8.11 57.22 9.63 65.48L11.46 75.41C11.7 76.72 12.45 79.32 13.04 80.61L18.92 93.49L17.98 94.95C17.75 95.3 18.5 96.21 19.06 96.89L23.91 102.84L27.99 112.22L28.95 116.16C29.12 116.85 30.83 116.81 32 116.98L39.34 130.5V130.49Z" fill="black"/>
<path d="M72.47 82.33C68.97 84.51 59.94 86.78 56.09 86.08C47.8 84.58 36.41 78.6 35.97 71.86C30.83 65.62 30.16 57.46 33.49 50.43C37.93 41.08 43.05 36.55 53.08 33.63C57.09 32.46 59.89 32.51 63.82 33.55C74.66 36.42 79.61 40.23 83.5 51.95C84.76 55.74 86.2 59.09 84 62.8C84.51 71.23 79.29 78.07 72.47 82.32V82.33ZM76.58 59.38C76.58 49.42 68.5 41.34 58.54 41.34C48.58 41.34 40.5 49.42 40.5 59.38C40.5 69.34 48.58 77.42 58.54 77.42C68.5 77.42 76.58 69.34 76.58 59.38Z" fill="black"/>
</g>
<defs>
<clipPath id="clip0_146_675">
<rect width="116.85" height="187.27" fill="white"/>
</clipPath>
</defs>
</svg>
