<svg width="175" height="178" viewBox="0 0 175 178" fill="none" xmlns="http://www.w3.org/2000/svg">
<g clip-path="url(#clip0_146_602)">
<path d="M157.04 176.44C156.35 176.59 154.24 174.81 153.78 175.2L151.16 177.45L149.31 172.61C144.59 172.23 142.19 169.74 139.74 166.08L134.9 158.87L133.44 156.25C133.11 155.66 131.4 157.28 131.25 157.34C128.53 153.72 126.56 151.64 122.94 149.89L119.29 142.45C115.32 140.12 110.96 137.14 109.19 132.94L104.34 121.43C100.63 125.08 98.33 125.41 94.35 126.94L82.36 131.55C80.23 130.47 77.69 130.07 76.07 131.13C71.63 134.03 68.4 132.48 64.19 131.59C61.92 131.11 57.87 133.89 55.63 130.05L48.59 130.56C47.52 127.69 45.29 128.78 43.65 128.09C35.09 124.48 25.65 120.44 19.01 114C14.93 110.05 13.65 103.43 8.58 100.45L6.28 99.1C5.66 98.74 7.27 96.64 7.56 96.39C6.46 94.06 6.55 92.15 5.33 89.89L1.13 82.07C-0.469997 79.09 0.0300034 74.08 0.360003 70.92L1.58 59.49C1.78 57.63 1.23 55.17 0.610003 52.55L3.91 52.06C1.43 48.08 2.46 45.22 5.61 42.87L5.46 38.99C7.71 36.17 9.42 33.03 10.29 29.72C14.31 29.19 18.27 24.91 17.73 20.6L27.77 13.16L32.54 8.39C34 8.54 37.34 8.39 38.61 7.53L45.25 3.08L53.29 2.94C53.86 2.93 55.88 2.71 55.84 2.24L55.67 0C61.67 2.97 66.54 -0.6 72.42 1.75L73.92 1.38C74.27 1.29 75.07 1.63 75.6 1.8C80.03 1.39 84.46 1.82 88.79 3.07L91.58 2.87C92.32 2.82 93.05 4.68 93.44 5.62L101.06 8.95L100.18 6.3C100.04 5.87 102.36 5.76 102.38 6.22L102.46 9.17L108.29 13.56L109.75 14.66C110.06 14.89 111.44 14.41 111.18 14.12L109.62 12.36L108.52 11.12C108.3 10.87 108.49 9.79 108.82 9.86C113.17 10.74 111.44 15.42 117.13 22.15L118.96 18.17C120.36 18.77 120.58 21.84 119.55 24.04L122.96 28.52C124.16 28.28 126.5 27.72 127.1 28.49C127.81 29.41 128.09 31.89 128.24 33.2L129.6 44.59C129.9 47.13 133.18 49.91 135.64 53.22L131.56 51.86L134.81 64.18L132.47 77.77L130.14 89.71C129.72 91.88 131.05 96.55 128.4 97.75C125.75 98.95 123.95 100.12 123.09 101.31C122.67 105.15 123.75 107.31 126.79 108.05L133.15 111.7L137.42 114.32L143.22 120.71L152.73 130.21L159.9 137.11C159.75 137.23 158.04 138.68 158.47 139.09C159.03 139.62 160.72 140.94 161.48 141.02L163.54 141.24C164.01 141.29 164.27 142.75 164.34 143.24L164.88 146.78C165.03 147.78 167.87 148.63 169.15 149.05L173.06 157.83C173.38 158.55 174.78 160.57 174.29 161.14L171.88 163.96C171.58 167.96 169.86 170.01 166.24 172.05C163.74 173.47 159.83 175.86 157.04 176.45V176.44ZM122.27 66.84C122.27 36.48 97.66 11.87 67.3 11.87C36.94 11.87 12.32 36.48 12.32 66.84C12.32 97.2 36.93 121.81 67.29 121.81C97.65 121.81 122.26 97.2 122.26 66.84H122.27ZM151.01 165.12C153.32 166.21 156.09 167.63 157.71 166.93C159.72 166.07 162.68 164 163.49 161.9C164.3 159.8 162.78 155.25 161.54 153.49L152.71 144.07L146.83 138.15L137.92 128.93L129.68 120.26L123.64 116.56L118.23 112.95L111.56 117.82C112.31 120.44 113.94 123.23 115.66 125.12L116.36 131.17L117.69 127.44L124.59 135.56C124.56 135.33 123.21 137.24 123.9 137.42L126.79 138.21C128.72 138.73 130.75 142.25 131.46 144.89C132.87 144.94 135.4 145.65 136.41 147.02C137.24 148.15 137.86 150.71 138.28 152.29C142.55 155.55 146.94 159.31 150.11 162.91L148.22 164.31C147.98 164.48 148.91 165.24 149.2 165.23L151 165.13L151.01 165.12Z" fill="black"/>
<path d="M109.91 55.34C110.77 61.06 111.97 68.26 110.39 72.41C110.2 72.9 107.92 72.9 107.94 72.38L108.01 69.41C108.37 54.1 101.76 43.12 89.99 33.93C85.18 30.18 79.47 27.88 72.93 29.49C71.35 29.88 68.41 25.38 69.86 24.74C76.22 21.92 87.68 24.49 92.92 28.95L98.85 34C105.47 39.63 108.63 46.66 109.92 55.34H109.91Z" fill="black"/>
</g>
<defs>
<clipPath id="clip0_146_602">
<rect width="174.39" height="177.44" fill="white"/>
</clipPath>
</defs>
</svg>
