<svg width="179" height="179" viewBox="0 0 179 179" fill="none" xmlns="http://www.w3.org/2000/svg">
<g clip-path="url(#clip0_146_626)">
<path d="M111.68 157.17L110.41 167.25C110.12 169.54 109.1 173.51 105.4 174.15L93.81 176.13C92.94 176.28 91.35 178.6 90.56 178.34L87.06 177.18C82.49 178.36 80.18 177.06 76.84 174.48C71.5 170.35 70.59 166.45 69.94 158.75C69.64 155.19 65.23 153.44 61.97 152.59C54.59 150.66 49.92 165.15 39.02 160.96C35.28 159.52 31.16 156.28 27.43 153.72L29.53 152.21L21.91 149.11L18.86 136.58L26.52 126.17C28.56 119.85 23.43 113.02 17.45 112.05L8.96 110.67C7.63 110.45 5.38 109.81 4.51 109.02C3.64 108.23 3.8 105.52 3.73 104.22C1.97 101.49 0.3 98.39 0 94.21L2.92 96.78L3.75 96L0.63 92.34C-0.26 85.38 1.56 78.16 7.02 73.6L20.93 70.21C23.88 68.26 26.21 61.55 26.62 58.02L19.59 48.06C14.55 40.92 17.87 34.29 23.37 29.76C28.78 25.3 33.33 20.19 40.18 17.49C52.59 12.6 55.52 29.2 65.7 25.69C71.75 23.6 73.3 19.78 74.17 13.5L77.33 2.70001L96.25 0.0700129C98.95 -0.299987 101.63 0.830013 104.07 1.46001C108.82 2.70001 111.92 4.31001 113.46 8.81001C114.99 13.3 116.12 16.84 116.21 22.16C116.28 26.11 122.74 28.27 125.99 28.87C135.16 30.58 140.13 14.04 152.57 26.36C156.24 28.61 158.46 32.24 159.6 36.57C164.39 39.04 165.99 43.63 164.85 49.18C164.05 52.06 162.32 54.53 160.07 56.41L153.74 61.69C154.18 65.16 156.45 71.1 160.75 71.92L169.01 73.5C169.79 73.65 171.93 72.6 172.43 73.13L175.14 76.01L177.84 78.88C178.59 79.68 177.79 82.52 177.91 83.64L178.93 93.46C179.19 95.97 177.96 98.7 176.89 100.54L178.18 103.3C178.49 103.96 177.18 105.4 176.63 105.91L171.6 110.57L157.69 111.27L152.15 119.5L158.23 127.99C160.6 131.3 162.08 136.02 162.08 139.99L155.88 145.66C155.96 147.53 155.63 149.26 154.65 150.61C154.01 151.49 151.87 150.93 150.54 150.15L145.98 153.93L151.45 152.28C150.64 154.35 148.16 155.2 145.63 156.21C140.2 158.4 135.41 159.6 130 155.81L123.1 150.98C119.19 149.72 112.21 152.89 111.68 157.14V157.17ZM94.69 169.39C96.56 169.37 99.16 168.94 100.32 168.32C101.31 167.79 102.19 164.96 102.09 163.49C101.43 154.17 108.04 145.98 117.5 143.77C121.66 142.8 125.68 142.12 129.52 144.49L140.31 151.15L153.79 137.98L145.9 126.09C142.44 120.87 145.24 114.05 147.98 109.87C151.43 104.59 157.13 103.1 163.33 102.69L170 102.26L170.76 91.71L170.8 81.13C162.55 77.35 159.91 81.8 152.3 75.98C145.94 71.12 143.6 63.57 148.6 56.98L154.64 49.03C155.45 47.96 157.56 45.6 156.89 44.57L153.97 40.09C151.22 35.86 147.89 32.22 143.8 29.24C137.85 35.33 131.81 38.3 124.23 37.43C117.7 36.67 112.22 32.78 108.35 26.47C105.54 21.89 105.96 16.39 105.61 10.89C105.12 7.44001 99.13 7.11001 96.38 7.24001L84.19 7.81001C84.24 12.55 84.52 17.62 82.26 21.79C77.36 30.86 65.98 36.1 55.99 32.88L48.18 28.69C46.69 27.89 44.44 24.31 42.8 24.6C37.88 25.47 28.88 33.41 25.59 40.15L33.02 49.07C36.55 53.3 37.14 58.51 35.38 63.63C31.39 75.25 21.97 82.13 8.56 80.39L8.79 102.42L22.59 104.1C29.07 107.44 32.62 113.14 34.94 119.15C36.87 124.16 35.82 126.96 32.93 131.6L27.83 139.79C26.48 141.95 30.81 146.54 32.87 148.01L37.79 151.49C39.23 152.51 41.95 154.13 43.31 153.54C45.12 152.75 46.69 151.29 48.4 149.71C57.76 141.09 76.93 148.16 78.57 157.22L80.81 169.59L94.68 169.41L94.69 169.39Z" fill="black"/>
<path d="M80.83 122.31C79.34 121.98 76.57 122.38 75.07 121.18C72.53 119.14 69.64 118.2 66.98 116.95L62.05 112.89L61.77 110.5C61.7 109.9 59.21 109.21 58.88 108.64C55.28 102.46 51.47 91.78 53.9 84.42L56.74 75.81C57.42 73.75 60.05 69.62 61.72 68.22L69.36 61.81C74.58 57.43 82.5 56.42 89.88 56.06C103.26 55.41 116.32 65.1 120.83 77.98L122.14 82.94C123.7 88.87 123.58 96.7 120.73 102.08L117.25 108.64C113.21 115.42 105.44 118.15 99.12 121.46C92.8 124.77 87.43 123.78 80.83 122.31ZM85.26 114.5C91.6 116.53 99.14 112.6 104.56 108.11C111.51 102.35 114.47 94.59 113.49 85.75C112.8 79.58 110.38 75.92 106.17 71.85C98.23 64.17 87.06 60.84 76.87 67.91L76.83 65.95C76.83 65.51 75.68 66.09 75.4 66.41L74.27 67.69L68.58 73.8L66.12 75.28C66.57 75.01 61.42 85.61 62.54 92.97L61.79 95.08C61.66 95.45 63.33 96.05 63.76 96.2C66.41 106.66 74.33 112.83 85.26 114.51V114.5Z" fill="black"/>
</g>
<defs>
<clipPath id="clip0_146_626">
<rect width="178.97" height="178.34" fill="white"/>
</clipPath>
</defs>
</svg>
