<svg width="155" height="169" viewBox="0 0 155 169" fill="none" xmlns="http://www.w3.org/2000/svg">
<g clip-path="url(#clip0_146_643)">
<path d="M151.17 133.17C156.68 136.52 154.32 151.74 148.98 158.76C147.71 162.21 145.21 163.88 141.31 163.85C137.37 167.47 132.24 169.58 127.12 167.68C123.93 169.47 120.08 169.72 118.17 165.42L112.56 163.61L105.37 157.81C104.82 157.37 103.57 155.86 103.29 155.29C102.94 154.57 103.65 153.22 104.21 152.01C98.7 143.25 102.71 133.54 100.47 132.23L95.82 129.51C93.53 127.06 92.26 125.29 88.95 126.05C87.14 124.46 84.51 121.75 82.69 120.79L59.5 108.58C57.34 103.89 52.17 101.56 47.38 103.18C47.14 104.87 46.89 106.71 46.34 107.68C45.79 108.65 42.9 108.98 41.52 108.82C37.54 113 31.2 114.4 25.45 112.87C23.71 112.99 19.74 113.85 18.44 112.75L13.1 108.22C9.96998 107.53 7.74998 105.79 5.53998 103.73C3.21998 101.57 2.47998 100.33 1.93998 97.11L-0.0200195 85.39C0.34998 82.91 1.20998 77.51 2.71998 75.59L9.69998 66.68C10.02 66.28 10.36 64.36 10.84 64.25L13.56 63.63C16.2 62.78 20.7 60.65 23.38 60.66L34.3 60.69C44.21 60.72 40.95 67.41 49.3 69.45L83.58 47.78C85.32 47.45 86.28 46.66 87.84 45.65L102.91 35.89L99.36 29.35C99.75 25.37 100.5 20.93 101.71 17.36L103.43 12.28C106.7 9.57 110.05 6.45 112.48 3.37L119.57 1.12C124.73 -0.520001 133.23 -0.310001 138.18 1.65C140.42 3.38 142.09 5.18 144.97 5.35L150.93 11.11C151.43 14.64 152.2 17.92 153.77 20.96L154.78 26.23C155.39 29.4 152.32 34.26 150.69 36.83C152.45 36.76 153.45 37.19 151.53 38.09C150.7 40.37 150.49 41.01 150.05 43.61L138.25 50.69L132.16 52.77L121.18 52.56L114.94 49.51L107.72 44.3L95.96 52.13L80.43 61.32L71.1 66.87L52.93 77.68C53.71 80.01 55.62 84.94 54.95 87.28L52.79 94.76L58.29 97.56L67.43 102.43L74.47 106.42L83.43 110.81L81.89 113.48L91.05 116.09C93.72 117.3 97.16 119.81 99.85 121.88L95.3 121.68C96.92 123.69 99.19 124.4 101.73 123.45L106.69 125.6L113.01 118.83L126.57 115.7C130.5 117.1 134.3 117.89 138.68 116.79L142.92 121.05L152.17 130.35L150.5 130.99C150.2 131.1 148.9 131.02 149.12 131.26C149.46 131.63 150.67 132.91 151.14 133.2L151.17 133.17ZM129.59 44.57C134.29 43.94 137.25 42.15 140.31 39.1C146.8 32.63 147.86 24.03 142.73 16.24C141.09 13.75 138.92 11.56 136.44 9.63L134.08 7.78C133.62 7.42 132.52 8.42 131.9 8.81C125.07 5.93 116.23 10.61 113.79 18.08C112.42 18.66 110.2 19.35 109.97 20.57L108.91 26.26L106.87 31.72L109.78 29.64C111.33 39.28 121.08 45.71 129.59 44.58V44.57ZM18.2 101.33L23.74 105.03L29.89 104.66C35.89 104.3 40.59 100.59 43.58 95.08C44.63 94.63 47.21 92.69 45.46 92.34C47.64 83.79 44.06 76.44 37.24 70.69C33.12 67.22 24.29 67.17 18.24 70.89L14.78 73.02C14.06 73.46 15.07 75.58 15.28 76.18L13.12 75.7C12.83 75.63 12.46 76.72 12.72 76.87L14.69 78.03C14.69 78.09 13.68 78.95 13.25 78.96L11.24 79.02C11.02 79.06 10.73 80.51 11.06 80.64L13.67 81.64L9.08998 82.69C8.22998 89.98 11.58 96.91 18.21 101.34L18.2 101.33ZM135.39 158.44C139.59 157.59 141.33 153.08 143.67 150.31C149.19 143.78 142.3 132.82 144.39 130.68C142.33 132.78 141 125.56 132.9 124.8C127.95 124.33 125.27 121.51 117.21 128.67L110.68 135.89L108.56 140.35L111.43 150.29C113.14 156.23 122.27 161.11 128.17 159.91L135.39 158.44Z" fill="black"/>
</g>
<defs>
<clipPath id="clip0_146_643">
<rect width="154.89" height="168.9" fill="white"/>
</clipPath>
</defs>
</svg>
