<svg width="158" height="177" viewBox="0 0 158 177" fill="none" xmlns="http://www.w3.org/2000/svg">
<g clip-path="url(#clip0_146_615)">
<path d="M95.45 86.6L83.26 90.09C79.45 91.18 74.57 90.42 69.92 90.4C69.7 89.69 69.63 87.41 69.01 87.71L65.45 89.43L55.39 84.07C51.73 82.12 47.84 78.74 44.94 76.29C45.13 74.45 45.27 72.93 44.49 72.59L40.42 70.85L40.31 68.33C40.28 67.55 38.16 66.62 37.71 65.97L36.16 63.73C35.79 63.2 37.47 62.8 38.37 62.56C33.66 53 31.95 41.01 36.73 30.49C38.67 26.23 41.76 20.24 44.65 17.44L54.3 8.1C58.62 3.92 67.64 2.03 75.11 0.87L80.71 0C85.73 1.98 92.3 2.13 97.44 2.06L102.85 7.7L107.25 12.12L106.12 7.43L109.69 13.35L112.84 17.96C116.42 20.18 118.62 23.88 118.3 28.13C124.84 40.01 122.66 60.29 114.13 70.14C112.66 71.84 111.33 74.66 110.04 77.03L103.8 81.95C102.05 83.33 97.85 85.92 95.45 86.61V86.6ZM81.64 82.43C96.36 80.12 108.9 68.39 112.88 53.78C115.01 45.96 113.1 33.94 109.01 25.83C105.35 18.57 99.19 14.79 91.98 11.34C84.77 7.89 71.81 7.74 64.67 12.69L55.16 19.28C54.55 19.14 52.26 19.07 52.38 19.66L52.86 22.08C44.41 31.21 39.5 44.4 44.02 56.78L46.94 64.79C47.39 66.02 52.08 67.28 49.17 69.49C57.36 77.63 69.57 84.32 81.64 82.43Z" fill="black"/>
<path d="M79.79 174.72C70.42 177.99 64.82 174.11 57.4 175.55L57.25 174.13C57.21 173.79 56.11 173.03 55.97 173.34L54.68 176.3C48.3 177.22 40.4 174.18 41.19 176.48L40.34 174C36.12 179.42 33.1 173.12 23.24 175.69L26.11 172.86L18.07 173.64L13.14 174.12L14.39 172.29C14.59 172 14.62 171.52 14.25 171.53C13.88 171.54 11.78 171.95 11.44 171.79L1.51998 167.15C2.58998 164.68 3.36998 163.11 3.24998 161.85C3.08998 160.18 1.29998 157.96 -0.0200195 156.84L1.34998 154.2C1.57998 151.6 1.08998 145.77 2.63998 143.58L9.14998 134.36L8.36998 133.59L5.50998 135.55C6.13998 133.85 7.87998 132.49 9.72998 131.42L12.37 127.29C12.43 127.34 11.37 126.41 11.04 126.12C10.71 125.83 12.56 124.89 12.78 124.48L15.15 120.13C15.92 119.74 16.35 119.74 16.3 122.68L26.65 112.63C28.75 110.59 30.55 109.99 32.87 108.51L41.22 103.18L41.43 105.85L55.06 99.92C59.35 102.27 63.8 101.38 67.82 98.61C72.07 99.94 76.15 99.69 80.31 98.09C83.59 99.43 86.61 99.8 90.35 97.92L96.75 100.65C99.32 98.69 101.56 98.84 104.26 100.31L113.31 105.24L120.42 108.8L116.5 104.3C119.79 104.1 121.73 105.52 123.14 108.7C123.83 110.25 126.4 111.12 127.76 111.84L136.73 116.58L133.75 116.98C137.94 119.51 142.32 124.66 144.73 128.65C146.15 128.86 144.32 124.55 145.39 125.63C145.7 125.94 147.24 127.52 147.16 127.94C145.97 134.2 153.23 135.81 152.4 137.85L151.38 140.35L156.91 147.67L151.68 145.65L155.84 149.78C156.47 150.4 158.06 152.62 157.57 153.36L155.18 156.99L156.42 167.59L149.27 173.47C146.69 171.42 141.5 172.67 139.76 175.37C137.95 174.43 136.43 174.05 134.18 173.86C130.03 176.71 125.59 176.61 121.4 174.17C116.6 176.7 111 175.85 105.78 173.68C101.67 175.59 97.62 175.69 93.57 174.2C89.18 176.18 84.07 177.1 79.76 174.72H79.79ZM104.35 167.34L123.03 166.36L135.94 165.33L148.03 164.24C148.03 160.4 148.5 156.88 147.96 154.85L145.73 146.59L143.92 139.84C143.41 137.93 141.1 134.95 139.93 132.85C138.83 130.88 137.64 128.6 136.23 127.67L129.58 123.28L131.61 122.25C131.89 122.11 130.62 121.02 130.3 120.89L124.89 118.63C118.52 115.97 112.33 110.71 105.77 109.5C102.12 108.83 97.52 109.99 94.58 107.59H89.15C76.85 107.63 72.85 103.55 66.84 107.84C64.15 109.76 61.58 109.01 58.96 107.09C55.72 108.39 51.97 110.78 48.86 112.97C44.26 110.75 40.04 113.43 37.5 117.45C32.69 117.42 28.37 120.26 26.45 124.45C22.7 125.54 22.12 127.54 19.81 130.45C10.78 141.85 12.96 148.26 10.74 150.43C10.51 150.65 10.3 150.53 10.15 150.21L9.01998 147.73L9.59998 156.98C9.63998 157.61 10.72 159.3 10.23 159.7L7.62998 161.79C10.75 164.01 14.04 165.88 18.12 165.86L25.66 165.82C28.39 165.81 31.82 167.29 34.6 166.88C39.94 166.09 45.8 167.16 51.22 168.1C56.09 166.67 60.77 166.88 65.45 168.49C71.4 167.1 77.12 166.77 82.95 168.25C87.49 166.93 92.13 166.54 96.92 167.8L104.36 167.34H104.35Z" fill="black"/>
</g>
<defs>
<clipPath id="clip0_146_615">
<rect width="157.69" height="176.49" fill="white"/>
</clipPath>
</defs>
</svg>
